# xmcd CD database file
#
# Track frame offsets:
#	150
#	18901
#	31521
#	45285
#	63590
#	76880
#	92034
#	105926
#	118233
#	129945
#	143187
#	160830
#	183356
#	202254
#	216532
#	235349
#	250535
#	265848
#
# Disc length: 3643 seconds
#
# Revision: 1
# Processed by: cddbd v1.5.2PL0 Copyright (c) Steve Scherf et al.
# Submitted via: CDex 1.51
#
DISCID=ed0e3912
DTITLE=Juice Newton - American Girl Vol. II
DYEAR=1900
DGENRE=Country
TTITLE0=Angel of the morning
TTITLE1=Ask Lucinda
TTITLE2=Listen to the Radio
TTITLE3=Break it to me gently
TTITLE4=They never made it to Memphis
TTITLE5=Keepin' me alive
TTITLE6=I've been mistreated
TTITLE7=Crazy little Thing called love
TTITLE8=Night Time without you
TTITLE9=You can't say you don't love me anymore
TTITLE10=The trouble with Angels
TTITLE11=Red blooded American Girl
TTITLE12=The sweetest Thing
TTITLE13=Love's been a little bit hard on me
TTITLE14=Ride 'em Cowboy
TTITLE15=Keepers of the Peace
TTITLE16=Queen of Hearts
TTITLE17=It's late
EXTD=
EXTT0=
EXTT1=
EXTT2=
EXTT3=
EXTT4=
EXTT5=
EXTT6=
EXTT7=
EXTT8=
EXTT9=
EXTT10=
EXTT11=
EXTT12=
EXTT13=
EXTT14=
EXTT15=
EXTT16=
EXTT17=
PLAYORDER=
